# xmcd CD database file
#
# Track frame offsets:
#	150
#	3249
#	18095
#	29045
#	45805
#	59922
#	73804
#	78685
#	93636
#	106110
#	119423
#	130840
#	144314
#	158396
#	170991
#	183738
#	197147
#	212522
#	223633
#	233431
#	244728
#	259141
#	274100
#	285696
#	299939
#
# Disc length: 4118 seconds
#
# Revision: 0
# Processed by: cddbd v1.5.1PL2 Copyright (c) Steve Scherf et al.
# Submitted via: CDex 1.50
#
DISCID=7b101419
DTITLE=Lilian Jackson Braun - The Cat Who Tailed a Thief
DYEAR=2003
DGENRE=Audiobook
TTITLE0=01. 01 The Cat Who Tailed a Thief
TTITLE1=01. 02 The Cat Who Tailed a Thief
TTITLE2=01. 03 The Cat Who Tailed a Thief
TTITLE3=01. 04 The Cat Who Tailed a Thief
TTITLE4=01. 05 The Cat Who Tailed a Thief
TTITLE5=01. 06 The Cat Who Tailed a Thief
TTITLE6=01. 07 The Cat Who Tailed a Thief
TTITLE7=01. 08 The Cat Who Tailed a Thief
TTITLE8=01. 09 The Cat Who Tailed a Thief
TTITLE9=01. 10 The Cat Who Tailed a Thief
TTITLE10=01. 11 The Cat Who Tailed a Thief
TTITLE11=01. 12 The Cat Who Tailed a Thief
TTITLE12=01. 13 The Cat Who Tailed a Thief
TTITLE13=01. 14 The Cat Who Tailed a Thief
TTITLE14=01. 15 The Cat Who Tailed a Thief
TTITLE15=01. 16 The Cat Who Tailed a Thief
TTITLE16=01. 17 The Cat Who Tailed a Thief
TTITLE17=01. 18 The Cat Who Tailed a Thief
TTITLE18=01. 19 The Cat Who Tailed a Thief
TTITLE19=01. 20 The Cat Who Tailed a Thief
TTITLE20=01. 21 The Cat Who Tailed a Thief
TTITLE21=01. 22 The Cat Who Tailed a Thief
TTITLE22=01. 23 The Cat Who Tailed a Thief
TTITLE23=01. 24 The Cat Who Tailed a Thief
TTITLE24=01. 25 The Cat Who Tailed a Thief
EXTD=YEAR: 2003
EXTT0=
EXTT1=
EXTT2=
EXTT3=
EXTT4=
EXTT5=
EXTT6=
EXTT7=
EXTT8=
EXTT9=
EXTT10=
EXTT11=
EXTT12=
EXTT13=
EXTT14=
EXTT15=
EXTT16=
EXTT17=
EXTT18=
EXTT19=
EXTT20=
EXTT21=
EXTT22=
EXTT23=
EXTT24=
PLAYORDER=
